<svg xmlns="http://www.w3.org/2000/svg" width="16" height="16"><style type="text/css">.icon-canvas-transparent{opacity:0;fill:#F6F6F6;} .icon-vs-out{fill:#F6F6F6;} .icon-vs-action-blue{fill:#00539C;}</style><path class="icon-canvas-transparent" d="M16 16h-16v-16h16v16z" id="canvas"/><path class="icon-vs-out" d="M6.989 0c1.422 0 2.801.507 3.878 1.425l.129.109v-1.534h1.415l2.583 2.586v5.414h-5.41l-3.677-3.68c-.551.356-.915.976-.915 1.68 0 .584.26 1.143.724 1.541l6.344 5.625-2.507 2.834h-.324l-6.139-5.443c-1.332-1.141-2.096-2.803-2.096-4.557 0-3.309 2.69-6 5.995-6z" id="outline"/><path class="icon-vs-action-blue" d="M6.989 1c1.185 0 2.333.422 3.231 1.188l1.775 1.504v-2.692l1.998 2v4h-3.995l-1.998-2h2.448l-1.52-1.287c-.539-.46-1.229-.713-1.939-.713-1.652 0-2.997 1.346-2.997 3 0 .877.383 1.707 1.061 2.289l5.596 4.963-1.324 1.496-5.585-4.951c-1.11-.951-1.746-2.336-1.746-3.797 0-2.757 2.241-5 4.995-5z" id="iconBg"/></svg>