<svg xmlns="http://www.w3.org/2000/svg" width="16" height="16"><style type="text/css">.icon-canvas-transparent{opacity:0;fill:#F6F6F6;} .icon-vs-out{fill:#F6F6F6;} .icon-vs-action-blue{fill:#00539C;}</style><rect class="icon-canvas-transparent" width="16" height="16" id="canvas"/><path class="icon-vs-out" d="M14.994 6c0 1.754-.764 3.416-2.096 4.557l-6.138 5.443h-.324l-2.507-2.834 6.344-5.625c.463-.399.723-.957.723-1.541 0-.704-.364-1.324-.915-1.68l-3.677 3.68h-5.41v-5.414l2.583-2.586h1.415v1.534l.129-.109c1.077-.918 2.456-1.425 3.878-1.425 3.306 0 5.995 2.691 5.995 6z" id="outline"/><path class="icon-vs-action-blue" d="M13.994 6c0 1.461-.636 2.846-1.746 3.797l-5.584 4.951-1.324-1.496 5.596-4.962c.678-.582 1.061-1.413 1.061-2.29 0-1.654-1.345-3-2.997-3-.711 0-1.4.253-1.939.713l-1.521 1.287h2.448l-1.998 2h-3.996v-4l1.998-2v2.692l1.775-1.504c.899-.766 2.047-1.188 3.232-1.188 2.754 0 4.995 2.243 4.995 5z" id="iconBg"/></svg>